<svg xmlns="http://www.w3.org/2000/svg" viewBox="0 0 230.7 137.35"><defs><style>.cls-1,.cls-2{fill:#fff;}.cls-2{stroke:#000;stroke-miterlimit:10;stroke-width:5px;}</style></defs><title>Asset 3</title><g id="Layer_2" data-name="Layer 2"><g id="stellar_door" data-name="stellar door"><path class="cls-1" d="M1.43,136.66c.12-1.27.35-2.86.69-4.76s.77-4,1.28-6.2,1.06-4.51,1.66-6.85,1.2-4.57,1.79-6.7S8,108.1,8.51,106.38s1-3.06,1.29-4c.81-.27,1.62-.5,2.43-.7s1.66-.37,2.56-.52A13.23,13.23,0,0,1,16.5,101a4.87,4.87,0,0,1,1.61.2c.31,2.09.66,4.48,1,7.15s.81,5.45,1.32,8.34,1.1,5.76,1.75,8.64a73.33,73.33,0,0,0,2.29,8A11.44,11.44,0,0,1,22,134.4a20.77,20.77,0,0,1-3,.74,2.71,2.71,0,0,1-.91-.69,3.9,3.9,0,0,1-.64-1.23,17.28,17.28,0,0,1-.55-2c-.19-.79-.39-1.8-.63-3a9.7,9.7,0,0,0-1.21.15l-2,.36-2.27.45c-.77.16-1.42.3-2,.43a15.71,15.71,0,0,0-.68,3.1c-.16,1.23-.26,2.51-.3,3.83a4.87,4.87,0,0,1-1,.29l-1.47.27c-.53.09-1.06.15-1.6.19s-1,.06-1.4.06a1.22,1.22,0,0,1-.66-.24A.72.72,0,0,1,1.43,136.66Zm11.94-28.28q-1,4-1.89,7.85T10,123.57c.92-.21,1.8-.4,2.65-.56s1.74-.29,2.67-.42l-.48-2.91c-.19-1.14-.37-2.34-.55-3.62s-.34-2.57-.49-3.9S13.5,109.57,13.37,108.38Z"/><path class="cls-1" d="M28.89,130.74a13.45,13.45,0,0,1,.46-3.22,14.33,14.33,0,0,1,1-2.87,6.47,6.47,0,0,0,3.06,2.46,7,7,0,0,0,3.74.37,5.89,5.89,0,0,0,2.7-1.06,2.75,2.75,0,0,0,1-2.32,2.65,2.65,0,0,0-1.13-2.16,9.67,9.67,0,0,0-2.55-1.36c-1-.35-1.93-.65-2.89-.91a10.08,10.08,0,0,1-2.27-.83,8.08,8.08,0,0,1-2.88-2.64A7.54,7.54,0,0,1,28,112a16.17,16.17,0,0,1,.69-5,14.28,14.28,0,0,1,2.12-4.26,15.21,15.21,0,0,1,3.35-3.35,16.39,16.39,0,0,1,4.4-2.28,13.94,13.94,0,0,1,2.52-.59,10.65,10.65,0,0,1,2.76-.06,6.46,6.46,0,0,1,2.41.69,2.84,2.84,0,0,1,1.45,1.71,6.43,6.43,0,0,1,.31,1.88,13.08,13.08,0,0,1-.13,2.07,14.15,14.15,0,0,1-.47,2.08,17.76,17.76,0,0,1-.68,1.89,2.69,2.69,0,0,1-1,.87,14.14,14.14,0,0,1-1.65.79,16,16,0,0,1-1.8.62,8.6,8.6,0,0,1-1.48.29,13.36,13.36,0,0,0,.71-2.29,22.81,22.81,0,0,0,.43-2.45,1.69,1.69,0,0,0-.12-1,1.12,1.12,0,0,0-.63-.54,2.13,2.13,0,0,0-1-.09,4.47,4.47,0,0,0-1.13.31,6.13,6.13,0,0,0-2,1.34,8.8,8.8,0,0,0-1.38,1.86,7.82,7.82,0,0,0-.77,2.08,6.79,6.79,0,0,0-.09,2.1,3.76,3.76,0,0,0,1.38,2.54,8.14,8.14,0,0,0,3.06,1.62c1.25.39,2.41.78,3.46,1.18a11.9,11.9,0,0,1,2.77,1.48,6.17,6.17,0,0,1,1.86,2.14,6.6,6.6,0,0,1,.69,3.14,8.15,8.15,0,0,1-.9,4.11,9,9,0,0,1-2.49,2.91,12.58,12.58,0,0,1-3.5,1.86,21.82,21.82,0,0,1-3.88,1,15.45,15.45,0,0,1-5.33.06A4.05,4.05,0,0,1,28.89,130.74Z"/><path class="cls-1" d="M72.27,97.55c-.9.15-2,.3-3.19.45s-2.35.35-3.37.58q-.37,7.33-.39,14.22t.28,13.85a9.56,9.56,0,0,1-3.24,1.18,15.43,15.43,0,0,1-3.39.31c-.13-2.42-.19-4.88-.16-7.39s.08-5,.16-7.47.14-4.86.22-7.16.11-4.45.08-6.42c-1,.17-2,.35-2.91.53s-2,.42-3.17.72c0-.32,0-.74,0-1.26s0-1,.08-1.59.09-1.09.13-1.61.1-.95.14-1.28c.95-.26,2.22-.55,3.81-.88s3.27-.65,5-1,3.5-.58,5.23-.81,3.2-.41,4.44-.51a20.2,20.2,0,0,1,.21,2.61C72.29,95.73,72.29,96.69,72.27,97.55Z"/><path class="cls-1" d="M90.36,109.79c1.13,1.83,2.37,3.67,3.72,5.55a42,42,0,0,0,4.1,4.93,10.24,10.24,0,0,1-.92.7,15.13,15.13,0,0,1-1.31.78,13.64,13.64,0,0,1-1.58.73,9.24,9.24,0,0,1-1.78.5,5.87,5.87,0,0,1-2-1.36,20.79,20.79,0,0,1-2.19-2.48c-.76-1-1.51-2-2.27-3.23s-1.46-2.39-2.13-3.63a46.47,46.47,0,0,0-.1,5.65c.07,1.87.19,3.76.34,5.68a4.78,4.78,0,0,1-1.5.82,9.63,9.63,0,0,1-1.75.46,5.89,5.89,0,0,1-3-.14q-.35-3.56-.37-7.6c0-2.7,0-5.37.11-8s.22-5.15.39-7.53.32-4.46.45-6.23c-.17-.44-.34-.94-.52-1.52a10.77,10.77,0,0,1-.36-1.45,15.28,15.28,0,0,1,3.21-1.8,22.3,22.3,0,0,1,4.74-1.25,19,19,0,0,1,5.08-.22,8.86,8.86,0,0,1,4,1.32,7.06,7.06,0,0,1,2.56,3.09,11.86,11.86,0,0,1,.86,5,11.29,11.29,0,0,1-2.19,6.64A15.14,15.14,0,0,1,90.36,109.79Zm-6.28-3.31.56,0c.18,0,.37,0,.56-.07a6,6,0,0,0,2.63-1.15A11,11,0,0,0,90,103.13a12.3,12.3,0,0,0,1.48-2.45A5.66,5.66,0,0,0,92,98.54a3.45,3.45,0,0,0-1.34-3q-1.35-1-4.81-.39a5.18,5.18,0,0,0-1.14.34c-.07,1.33-.15,2.51-.22,3.55s-.15,2-.2,2.83-.11,1.65-.15,2.39S84.09,105.75,84.08,106.48Z"/><path class="cls-1" d="M115.73,84.92a9.17,9.17,0,0,1,4.78.35,8,8,0,0,1,3.5,2.59,11.89,11.89,0,0,1,2.1,4.5,23.9,23.9,0,0,1,.67,6.12,36.88,36.88,0,0,1-.87,7.49,25.19,25.19,0,0,1-2.4,6.55,16,16,0,0,1-4,4.89,11.84,11.84,0,0,1-5.62,2.49,8.51,8.51,0,0,1-5.24-.55,8.62,8.62,0,0,1-3.51-3.17,14.8,14.8,0,0,1-2-5.07,29.58,29.58,0,0,1-.6-6.2,31.65,31.65,0,0,1,.85-7.27,24.61,24.61,0,0,1,2.41-6.33,16.61,16.61,0,0,1,3.91-4.75,11.64,11.64,0,0,1,5.41-2.48,2,2,0,0,1,.31.39Zm-.32,6.14a5,5,0,0,0-2.58,1.74A12.23,12.23,0,0,0,111,96a20.43,20.43,0,0,0-1.13,4,24.61,24.61,0,0,0-.4,4.19,26.65,26.65,0,0,0,.24,4.12,12.65,12.65,0,0,0,.83,3.23,4.71,4.71,0,0,0,1.5,2,3.06,3.06,0,0,0,2.28.52,4,4,0,0,0,2.45-1.5,10.66,10.66,0,0,0,1.75-3.18,24.16,24.16,0,0,0,1.08-4.36,31.92,31.92,0,0,0,.4-5.06,29.3,29.3,0,0,0-.2-4,9.46,9.46,0,0,0-.75-2.91,3.64,3.64,0,0,0-1.41-1.67A3.37,3.37,0,0,0,115.41,91.06Z"/><path class="cls-1" d="M132.45,115.15q-.31-7,.07-14.23t.74-14.64c-.16-.6-.3-1.09-.41-1.47s-.24-.91-.39-1.61a8.41,8.41,0,0,1,1.59-.86c.7-.31,1.46-.61,2.27-.9s1.64-.54,2.47-.77a20.73,20.73,0,0,1,2.22-.52c4.55-.75,7.82.23,9.78,3s2.93,7,2.87,12.85a30.68,30.68,0,0,1-.83,6.77,19.15,19.15,0,0,1-2.46,5.8,15.62,15.62,0,0,1-4.31,4.42,17.26,17.26,0,0,1-6.38,2.59,12.46,12.46,0,0,1-2,.25,19.59,19.59,0,0,1-2,0,13.86,13.86,0,0,1-1.84-.22A5.55,5.55,0,0,1,132.45,115.15Zm6.15-5.57a4,4,0,0,0,1.29,0,6.4,6.4,0,0,0,3.45-1.66,10.24,10.24,0,0,0,2.25-3.17,15.63,15.63,0,0,0,1.22-4,23.07,23.07,0,0,0,.33-4.16,35,35,0,0,0-.33-4.7,10.22,10.22,0,0,0-1.18-3.68,4.26,4.26,0,0,0-2.35-2,5.64,5.64,0,0,0-3.81.44c-.25,3.73-.44,7.53-.59,11.4S138.63,105.78,138.6,109.58Z"/><path class="cls-1" d="M165.81,99.74q-.78-2.3-1.93-5c-.78-1.79-1.61-3.59-2.51-5.42s-1.81-3.62-2.74-5.36-1.8-3.34-2.6-4.79a13.74,13.74,0,0,1,1.4-.82c.55-.29,1.1-.56,1.67-.8s1.14-.46,1.7-.65a9.89,9.89,0,0,1,1.57-.41c.32.54.74,1.29,1.28,2.24s1.11,2.06,1.72,3.35,1.25,2.72,1.92,4.3,1.31,3.27,1.9,5.06c.69-2.39,1.29-4.39,1.78-6s.94-3,1.35-4.23.83-2.35,1.25-3.39.9-2.2,1.45-3.48a12.94,12.94,0,0,1,3.34-.13,10.49,10.49,0,0,1,2.76.55q-1,2.25-1.86,4.57c-.6,1.55-1.24,3.25-1.9,5.11s-1.37,3.93-2.11,6.23-1.58,4.93-2.51,7.88c0,.67-.05,1.46-.07,2.39s-.08,1.89-.14,2.89-.14,2-.23,3-.18,1.84-.29,2.62c-.56.16-1.17.32-1.82.47a14.92,14.92,0,0,1-1.9.34,13.18,13.18,0,0,1-1.74.09,2.83,2.83,0,0,1-1.31-.28c.2-1.38.35-3,.46-4.72S165.84,101.71,165.81,99.74Z"/><path class="cls-1" d="M191.22,105.93a9,9,0,0,1-1.35.54q-.8.25-1.68.45c-.59.13-1.18.25-1.77.34a11.26,11.26,0,0,1-1.58.17c-.11-1.44-.19-3.21-.24-5.33s-.07-4.36,0-6.72.07-4.74.13-7.14.15-4.61.27-6.62.22-3.73.33-5.15a16.11,16.11,0,0,1,.36-2.76,12.21,12.21,0,0,1,1.21-.45q.71-.21,1.47-.39c.51-.11,1-.21,1.52-.27a9.63,9.63,0,0,1,1.34-.1c.55,1.52,1.09,3,1.63,4.33s1.12,2.72,1.74,4.09,1.3,2.77,2,4.21,1.57,3,2.51,4.71c-.05-1.12-.07-2.52-.05-4.22s.05-3.45.12-5.24.16-3.52.28-5.17.27-3,.43-4a11.92,11.92,0,0,1,3-.9q1.71-.28,3.12-.42-.42,7.59-.7,16.24t.22,17.63a10.31,10.31,0,0,1-2,.76,19.21,19.21,0,0,1-2.29.53,21.84,21.84,0,0,1-2.22-2.63q-1.32-1.77-2.81-4.13t-2.87-5.09A52.17,52.17,0,0,1,191,87.71c-.16,3-.23,6-.23,8.94S190.94,102.68,191.22,105.93Z"/><path class="cls-1" d="M229.07,100.06c-2.66.48-5.37,1-8.13,1.52s-5.45,1.08-8.07,1.61c-.2-.6-.36-1.14-.49-1.63a14.78,14.78,0,0,1-.32-1.5,13.89,13.89,0,0,1-.18-1.65c0-.59,0-1.28,0-2.07q0-5.53.15-10.89t.69-11c-.14-.63-.28-1.39-.4-2.26a20,20,0,0,1-.23-2.43,11.35,11.35,0,0,1,1.84-.8q1.26-.45,2.88-.87c1.07-.28,2.22-.54,3.43-.79s2.39-.45,3.53-.61,2.22-.26,3.22-.31a12.41,12.41,0,0,1,2.45.07,11.64,11.64,0,0,1-.1,1.3c-.07.5-.14,1-.22,1.54a11.38,11.38,0,0,1-.3,1.46,6.8,6.8,0,0,1-.33,1c-.69,0-1.44,0-2.26.1s-1.63.13-2.46.23a22.32,22.32,0,0,0-2.44.46,12.69,12.69,0,0,0-2.23.76c-.08.48-.16,1.16-.22,2.06s-.13,1.84-.18,2.8-.09,1.91-.11,2.82,0,1.61,0,2.11c.54-.1,1.26-.24,2.15-.44s1.81-.37,2.76-.53,1.85-.27,2.73-.35a9.35,9.35,0,0,1,2.13,0c0,.86-.1,1.79-.23,2.8a10,10,0,0,1-.62,2.53,34.32,34.32,0,0,0-4.54.55c-1.61.3-3.13.65-4.54,1,0,.53,0,1.12,0,1.76l0,2c0,.66,0,1.31,0,2a12.45,12.45,0,0,0,.16,1.73l2.36-.42,3-.52c1-.17,1.95-.31,2.82-.44s1.48-.2,1.84-.23a8.28,8.28,0,0,1,.51,2.61C229.06,98.13,229.08,99.11,229.07,100.06Z"/><circle class="cls-2" cx="117.15" cy="38.78" r="36.27"/><path class="cls-1" d="M230.6,18.58c-2.55-12.7-56.22-12.63-119.87.16S-2.46,52.2.09,64.91,56.32,77.54,120,64.75,233.16,31.29,230.6,18.58ZM118.67,57.66c-56.57,11.37-104,12.7-106,3S55,33.77,111.59,22.4s104-12.69,106-3S175.25,46.29,118.67,57.66Z"/><path class="cls-1" d="M113.32,31.67C69.8,40.42,35.42,52,36.54,57.58s37.31,3,80.83-5.76,77.91-20.35,76.79-25.92S156.85,22.93,113.32,31.67Zm3.34,16c-39,7.85-71.3,11.11-72.07,7.29s30.26-13.27,69.29-21.12S185.19,22.72,186,26.54,155.7,39.82,116.66,47.66Z"/><path class="cls-2" d="M81.27,44.1A36.27,36.27,0,1,1,153,33.46"/><path d="M153.12,43.48a35.61,35.61,0,0,0,.3-4.27c-10.62,2.81-23.21,5.73-36.76,8.45C104.92,50,93.81,52,84,53.42a36.73,36.73,0,0,0,2,3.85c9.7-1.39,20.32-3.22,31.43-5.45C130.33,49.21,142.47,46.35,153.12,43.48Z"/><path d="M147.59,58.5a36.91,36.91,0,0,0,4-8.45c-10.28,2.71-21.36,5.28-33,7.61-9.94,2-19.59,3.68-28.77,5.05a36.36,36.36,0,0,0,7,6.19c7.47-1.19,15.18-2.57,23-4.15C129.54,62.82,138.79,60.72,147.59,58.5Z"/></g></g></svg>